# xmcd CD database file
#
# Track frame offsets:
#	150
#	15926
#	35701
#	56215
#	75787
#	93827
#	110876
#	123356
#	141980
#	157457
#	167621
#	192507
#	216388
#
# Disc length: 3239 seconds
#
# Revision: 0
# Processed by: cddbd v1.5.2PL0 Copyright (c) Steve Scherf et al.
# Submitted via: CDex 1.51
#
DISCID=b80ca50d
DTITLE=Bad Apple and Big Boy - Rollin' and Tumblin'
DYEAR=1900
DGENRE=Blues
TTITLE0=Bad Apple and Big Boy - Po' Black Mattie
TTITLE1=Bad Apple and Big Boy - Jitterbug Swing
TTITLE2=Bad Apple and Big Boy - Rollin' and Tumblin'
TTITLE3=Bad Apple and Big Boy - Night Fishin'
TTITLE4=Bad Apple and Big Boy - Betcha Goin' Fishing
TTITLE5=Bad Apple and Big Boy - Engineer Blows The Whistle
TTITLE6=Bad Apple and Big Boy - Stay All Night
TTITLE7=Bad Apple and Big Boy - Hard Times
TTITLE8=Bad Apple and Big Boy - Jumper On The Line
TTITLE9=Bad Apple and Big Boy - Skinny Woman
TTITLE10=Bad Apple and Big Boy - Smokestack Lightning
TTITLE11=Bad Apple and Big Boy - All Night Long
TTITLE12=Bad Apple and Big Boy - Went To The River
EXTD=
EXTT0=
EXTT1=
EXTT2=
EXTT3=
EXTT4=
EXTT5=
EXTT6=
EXTT7=
EXTT8=
EXTT9=
EXTT10=
EXTT11=
EXTT12=
PLAYORDER=
